<?xml version="1.0" encoding="utf-8"?>
<!-- Generator: Adobe Illustrator 26.3.1, SVG Export Plug-In . SVG Version: 6.00 Build 0)  -->
<svg version="1.1" id="Layer_1" xmlns="http://www.w3.org/2000/svg" xmlns:xlink="http://www.w3.org/1999/xlink" x="0px" y="0px"
	 viewBox="0 0 99.5 99.5" style="enable-background:new 0 0 99.5 99.5;" xml:space="preserve">
<style type="text/css">
	.st0{fill:#FFFFFF;}
</style>
<g>
	<path d="M51,48.3c1.9,1.9,5.1,1.9,7,0l21.5-21.5v7.1c0,2.7,2.2,5,5,5s5-2.2,5-5V16.3c0.1-0.4,0.2-0.9,0.2-1.4c0-2.7-2.2-5-5-5H65.6
		c-2.7,0-5,2.2-5,5c0,2.7,2.2,5,5,5h6.7L51,41.3C49,43.2,49,46.4,51,48.3z"/>
	<path d="M89.6,53c0-2.7-2.2-5-5-5c-2.8,0-5,2.2-5,5v3h0v19.6c0,2.5-2,4.5-4.5,4.5h-51c-2.5,0-4.5-2-4.5-4.5v-51
		c0-2.5,2-4.5,4.5-4.5h17.6V20h3c2.8,0,5-2.2,5-5c0-2.7-2.1-4.9-4.8-5H14.2c-2.5,0-4.5,2-4.5,4.5v71.1c0,2.5,2,4.5,4.5,4.5h71
		c2.5,0,4.5-2,4.5-4.5V56h0V53z"/>
</g>
<g>
	<path class="st0" d="M150.9,48.3c1.9,1.9,5.1,1.9,7,0l21.5-21.5v7.1c0,2.7,2.2,5,5,5s5-2.2,5-5V16.4c0.1-0.4,0.2-0.9,0.2-1.4
		c0-2.7-2.2-5-5-5h-19.1c-2.7,0-5,2.2-5,5c0,2.7,2.2,5,5,5h6.7l-21.4,21.4C149,43.3,149,46.4,150.9,48.3z"/>
	<path class="st0" d="M189.6,53c0-2.7-2.2-5-5-5c-2.8,0-5,2.2-5,5v3h0v19.6c0,2.5-2,4.5-4.5,4.5h-51c-2.5,0-4.5-2-4.5-4.5v-51
		c0-2.5,2-4.5,4.5-4.5h17.6V20h3c2.8,0,5-2.2,5-5c0-2.7-2.1-4.9-4.8-5h-30.7c-2.5,0-4.5,2-4.5,4.5v71.1c0,2.5,2,4.5,4.5,4.5h71
		c2.5,0,4.5-2,4.5-4.5V56h0V53z"/>
</g>
</svg>
