<?xml version="1.0" encoding="utf-8"?>
<!-- Generator: Adobe Illustrator 26.3.1, SVG Export Plug-In . SVG Version: 6.00 Build 0)  -->
<svg version="1.1" id="Layer_1" xmlns="http://www.w3.org/2000/svg" xmlns:xlink="http://www.w3.org/1999/xlink" x="0px" y="0px"
    viewBox="0 0 1196 1037" style="enable-background:new 0 0 1196 1037;" xml:space="preserve">
    <style type="text/css">
        .st0{fill:#ffffff63; stroke:#000000;stroke-width:0.5;stroke-linecap:round;stroke-linejoin:round;}
        <!-- g path {transition: all 0.2s;}
        .map-item:hover path {fill: rgba(69, 236, 75, 0.6);}
        text {font-size: 1.2rem; fill: white;}
        .svg-title {font-size: 1.5rem;} -->
    </style>
    <g>
        <g class="map-item" name="L013">
            <path class="st0" d="M453.6,803.2l0.1,0.2c1.1,1.5,3,4.2,3.3,5.1c0.3,0.9,0.4,4.1,0.4,5.9l-1.4,4.6l-4.2,4.7  c-1.2,0.9-3.8,2.9-3.8,4.7c0,1.8,2.7,3.1,4.2,3.7l1.6,3.2c-0.4,1.3-1.2,2.7-1.7,2.9c-1.4,0.5-4.7,0.9-6.1,0.9c-0.5,0-2-1.2-3.1-2.5  l-2.1-4.8l-0.5-0.1c0,0-3-0.5-6.9-1c-3.9-0.5-5.1,2-5.9,3.5c-0.2,0.3-0.3,0.6-0.5,0.9c-0.5,0.7-2.9,1.6-4.8,2l-5,0.9  c-1.4-1.1-3-2.5-3.2-3.2c-0.3-1-0.4-3.9-0.4-5.6l-1-4.6c-0.8-3.5-2-4.7-2.8-5c-0.7-1.3-1.6-3.3-1.6-4.1c0-0.8,1.5-4.2,2.8-6.9  l0.1-0.3l-0.6-5.1h-4.3l-9.5,1.5l-0.1,0c-0.2,0-3.7,1.1-5.8,3.2c-1.9,1.9-1,4.4-0.4,6.4c0.2,0.7,0.5,1.3,0.6,1.9  c0.4,2.1,1.5,4.5,1.9,5.3l-1.3,5.6c-2.5,1.1-5.3,2.2-6,2.2c-0.2,0-0.6,0-1,0c-1.9,0.1-6.8,0.2-8.2-0.8c-1.7-1.3-4.4-2.2-5.4-2.5  l-4.3-6.8l-4.6-3.1c-0.5-0.3-0.7-2.8-0.6-5.1l2.4-2.4l0-0.3c0-0.2,0.5-4.5,0.5-6c0-1.7-2.2-4.5-2.7-5l-3.8-5.2l-0.5-5.1l-3.6-9.3  l-0.1-0.1c0,0-2.9-3.4-3.9-4.8c-0.3-0.5-0.8-1.1-1.4-1.7c-0.8-1-2.4-2.9-2.4-3.6v-4.5l3.2-3.7l4.6-5.6l1-7.1l1.8-5.4l5.3-2.7h5.9  l2.4-5.9l-1.5-4l1.3-5.7l7.4-4.2l6.5-2.8l5.5,1.8c0.2,0.1,4.8,1.9,6.4,2.5c0.1,0.2,0.9,1.4,0.9,7.4v7.1l-2.7,4.6l-6,5.5l-0.1,0.3  c-0.1,0.5-1,5.1-1,6.6c0,1.5,0.9,7.8,1,8.5l0.1,0.4l5.2,4.1c0.2,0.2,4.5,4,6,5c1.3,0.8,3.1,1.4,3.9,1.5l2.6,3.5l1.6,5.3l6.3,1.7  l0.3-0.1c0.2-0.1,4.2-1.6,7.2-4.7c1.3-1.3,1.8-1.8,1.8-2.2c0.1-0.1,0.2-0.2,0.3-0.4c1.5-1.8,2.4-2.8,2.7-3.2l2.6-0.9h6.7l9.2,1  l10.5,3.8l3.9,4.3l-1.3,5.7l-3.4,5.8l-1,2.6l-0.1,0.2c0,0.1-0.5,3.5-0.5,5.1C452.6,800.5,453.5,802.9,453.6,803.2z"/>
            <path class="st0" d="M427.9,735.1c-1.6,1.1-3.1,4-3.3,4.3l-0.2,0.4l2.5,5.6l7.2-1.8l1.1-2.3l2.1-2.6l2.7-0.4l3.4,2.1l2.7,5.4v4.5  l2.1,3.7l0.1,0.1c0.1,0.1,2,2.5,4.5,5c0.4,0.4,0.9,1,0.8,1.5c-0.1,0.5-0.6,0.9-0.7,0.9l-3.2,2.3H444l-4.7-2.4l-5.8-2.1l-4.7,1.6  l-6.5,0.9c-0.8-0.4-3.3-1.5-4.5-2.3c-0.2-0.1-0.4-0.3-0.7-0.5c-1.6-1-4.2-2.7-5.4-4.6c-1.2-2.1-1.7-5-1.8-5.5v-5.5  c0.6-0.7,2.1-2.6,3.2-4.2c1.2-1.6,1.5-2.7,1.6-3.2l2.8-4.7l2.4-3.9l3.2-4.1l6.3-1.3l3,0.7v4.4l-1.4,3.7  C430.3,732.3,428.9,734.5,427.9,735.1z"/>
            <text x="378.6" y="798.2">남해군</text>
        </g>
        <g class="map-item" name="L004">
            <path class="st0" d="M477.4,720.1l-8.8-4.1l-0.2-0.1c-0.1,0-7.9-2-9.8-2.6c-1.2-0.4-3.2-2.4-4.1-3.6l-4.4-6.3l-0.6-7.8l3.2-3.8  l1.5-5.8l-4-7.9l0.6-5.5l0.6-1.9c0.6-1.9,1.9-5.2,1.9-5.2l0.1-0.4l-0.1-0.4c-1-2.5-2.6-6.9-2.6-8.2v-6.3l2.4-4.8l4.2-2.8v-4.4  l-6.8,1.7l-4.9,6.3l-2.5,8.9l-3.9,1.4l-1.2-3h-6.7l-1.6,6.5l6.1,8.2l2.4,4.9l-1.2,7.3l-4.8,5.4h-4c-0.7-0.3-4-1.5-6.8-3.7  c-3.7-3-7.4-1.5-7.6-1.5l-0.3,0.1l-3.3,4.6l-2.8,1.4l-2.8-6.1l-0.7-5.9l-5.3-0.7c-0.1-0.5-0.1-1-0.2-1.5c0,0,0-0.1,0-0.1  c0-0.1,0-0.2,0-0.3c-0.3-2-0.5-3.5-0.5-3.5l-0.5-6.1c0.3-0.6,1-2.1,1.4-3.3c0.5-1.6,0.5-4.1,0.5-4.3l-1-5.3l-2.6-3.7l-3.9-4.9  l-3.9-5.3l-1.8-4l0.9-2.6l1.1-4.9l-1.9-2.9l1.1-2.6l3.7-2.1v-4.6l-3.9-2.2l-4.8-2.9l-4-4.9l0.7-2.9l4.6-1.7h4.1l4.6,3.3h6.1l2.5-4.4  c0,0,0,0,0,0c0.1,0,0.2,0,0.3,0c0.1,0,0.1,0,0.2,0c0.1,0,0.2,0,0.4,0c0.1,0,0.2,0,0.3,0c0.1,0,0.3,0,0.5,0c0.1,0,0.2,0,0.3,0  c0.3,0,0.6,0,0.9,0c0.3,0,0.7,0,1.1-0.1c2.8-0.3,7.4-1.3,8-1.4l8.5-0.9l5.3,2.2l1.7,3.4v9.6l0.9,4.8c-0.1,0.3-0.1,0.6-0.1,0.9  c0.2,0.9,1.1,1.6,2.8,2.1c3,1,5.9,1.5,6.1,1.5l0.4,0.1l4.2-3.1l3.3-1.4l4.5-2l3.7-1.8c1.5,0.2,4.8,0.6,5.9,0.9c1.3,0.5,5,0.9,6.3,1  l2.6,2.6c0.3,0.8,0.8,2.4,0.8,3.4v1.7l1.3,3.3l5.2-0.6l4.8-2.1l6.1-3.3l5.9,1.4c0.4,0.2,2.6,1.1,4.7,2.4c1.8,1.1,3.7,2.5,4.4,3.1  v7.5l-1.2,1.5l-2.6,1.6l-0.1,0.4c-0.1,0.3-1.1,3.3-0.5,5.5l0.6,2.4l0.4,0.2c0.8,0.5,2.6,1.5,4.1,2.5c0.7,0.5,1.3,0.9,1.6,1.3  c0.1,0.1,0.3,0.3,0.5,0.4c0,0,0.1,0.1,0.1,0.1c0.2,0.1,0.4,0.3,0.6,0.4c0,0,0,0,0.1,0c0.2,0.1,0.4,0.3,0.7,0.4  c0.1,0,0.1,0.1,0.2,0.1c0.3,0.1,0.5,0.3,0.8,0.4c0,0,0.1,0,0.1,0.1c0.2,0.1,0.5,0.2,0.7,0.4c0,0,0.1,0,0.1,0.1  c0.3,0.1,0.5,0.2,0.8,0.4c0,0,0.1,0,0.1,0c0.2,0.1,0.5,0.2,0.7,0.3c0,0,0,0,0,0c0.2,0.1,0.5,0.2,0.7,0.3c0,0,0,0,0,0l-1,2.3L506,656  l-4.2,5.8v6.4l1.5,3.5l1,5.5l1.5,2.6l1,2.3l-2.1,0.6l-3.2-0.9l-3.7,0c-1.6,0-5.7,2.4-6.9,3.1l-0.3,0.2l-2.6,8.7l0,8.4l-3.9,6.9  l0,7.2l0.5,10.4L477.4,720.1z"/>
            <text x="427.4" y="670.1">사천시</text>
        </g>
        <g class="map-item" name="L014">
            <path class="st0" d="M394.4,677.1l-1.3,8.7l-1.9,5.1l-3.8,6.4l-5,5l-7.4,2.5l-10.5-2.6l-6.1,2l-13,2.6l-4.8,0.6l-4-3.4l-1.3-5.3  l-4-3.3l-1.7-5.7l3-3l3.4-7.4l1.4-3.5v-7.4l-5.7-2.9l-2.2-1.6v-3.8l-5.6-7l-3.4-1.4l-5-3.1l-4.6-6.6l-9.1-3.9l-1.1-2.8l-2-8.1  l-3.9-3.9l-0.6-4.7l1.3-4.7l-2.8-9.1l-4.1-3.4l-5.2-5.2l-4.6-7.3l-5.9-4.6l-3.2-5.7l-3.8-5.1v-6.9l-2.6-9.4l-0.7-7.4l-6.1-7.5  l-7.9-6l-5.1-6.4l-5.2-7.8l-1.6-3.8l3.1-2.6l4.3-0.6l6.1-2l0.2-0.1c1.1-0.7,4.2-2.7,5.7-3.2c0.7-0.2,1.5-0.8,2.1-2.1  c2.9,0.2,5.6,0.3,5.6,0.3l8.3,0l10.5,1l4.1,3.7l3.2,3.2l0.9,6.6l2.6,7.8l0.2,0.2c0,0,2.3,1.8,3.1,4c1.1,2.7,1.7,3.8,5.3,6.3  c3.4,2.4,5.4,3.9,5.4,3.9l0.1,0.1l5.9,2l5.1,3.3l6.8,9.7l4.9,3.8l0.3,0c0.3,0,7.4,0.5,8.9,0.5c1.5,0,11-0.5,11.4-0.5l0.4,0l0.3-0.3  c1.6-1.6,4.2-3.9,5-4.2c1.5-0.5,7.5-4.7,8.6-5.5l0.2-0.2l2.5-6.4l4.3-3.5l3.2,0.8l3.9,3l0,9.7h-0.1l0.1,1v1h0.1l0.6,10.9l1.4,4.4  l6.2,6.2l5.8,1.9l3.7,6.8l2.4,5.4l-2.1,3.6h-4.3l-4.6-3.3h-5.1l-5.9,2.2l-1.2,4.9l4.9,5.9l5.1,3.1l2.9,1.7v2.3l-3.2,1.8l-1.8,4.2  l2,3l-0.9,4l-1.1,3.3l2.1,4.8l4.1,5.6l3.9,4.9l2.3,3.3l0.9,4.6c0,0.6-0.1,2.1-0.3,3.1c0,0.1-0.1,0.3-0.1,0.4  c-0.5,1.4-1.4,3.3-1.4,3.3l-0.1,0.2l0.5,6.7c0,0,0.5,3,0.9,6L394.4,677.1z"/>
            <text x="314.4" y="625.1">하동군</text>
        </g>
        <g class="map-item check" name="L015">
            <path class="st0" d="M355.9,557.4c-1.5,0.5-4.5,3.3-5.5,4.4c-1.8,0.1-9.6,0.5-10.9,0.5c-1.3,0-7.1-0.4-8.5-0.5l-4.1-3.2l-6.9-9.9  l-5.6-3.6l-6-2c-0.5-0.4-2.4-1.8-5.3-3.9c-3.3-2.4-3.7-3.2-4.6-5.5c-0.9-2.2-2.8-4.1-3.5-4.6l-2.3-7l-0.8-5.9l3.9-0.9l4.1-6.7  l2.8-3.3l4.9-3l3.3-4.4v-9.3l4.9-4.9l0-0.4c0.1-1.3,0.6-5.1,0.9-6.2c0.1-0.4,0.2-0.7,0.3-1.1c0.3-1.1,0.6-2.4,2-4.5  c1.8-2.7,1.8-4.7,1.7-5.4l1.4-6l3.5-4.5v-5.6l0.9-3.3l0-1.8l3.4-3v-4l2-2.4l6.1-1.9l4.8-3l-1.3-3.9l-2.4-2.4l-0.8-3.5l2.2-1.8h4.5  l2.4-3l1.1-4.5l-2.5-5v-4.9l14.3-20.2v-1.5l1.4,0.3l3.4-0.4l1.5,2.7l0.5,6.7l2,6.5l0.6,4.7h6.5l5.7-1.9l5.3,2.6l3.6,5.7l9.5-0.5  l6.5-0.6l0.4,3l2.7,8.8l3.2,7.8c0.2,0.8,2,7.9,2.6,9.8c0.4,1.1,1.4,2.6,2.4,4.2c0.9,1.4,1.9,2.8,2.2,3.7c0.7,2.1,5.9,6.2,6.9,7  l9.3,5.3l10.6,4c2.8,1.6,5.3,3.6,5.3,4.3c0,2.2,4.2,6.6,5.5,7.9l5,3.1v8.6l4.8,2l1.8,6.7l4.6,7.5l-12.8,1.8h-9.7h0l-3.5,6.4l-3,4.9  l-7.1,1.3l-6.7,7.4l-8.6,5.3l-4,5.4l-2.7,7.4l-3,4.8l-6,1.2h-17l-2.9,7.2l-1.7,4.6h-4.2l0-10.6l-5-3.9l-4.6-1.2l-5.5,4.4l-2.4,6.4  c-0.3,0.2-0.7,0.5-1.1,0.7C360.1,554.9,356.7,557.1,355.9,557.4z"/>
            <text x="355.9" y="487.4">산청군</text>
        </g>
        <g class="map-item" name="L016">
            <path class="st0" d="M252.6,497.8l-1.1-6l3.3-2.2l6.7-4l4.1-5.4l3.3-5.9l8-7.3l2.8-9.7l-1.4-10.4l-3-3l-3.9-1.9l-2.4-3l-2.5-4.3  v-3.9l3-3l4.2-6.3v-6.1l-4.3-2.9l-2.9-2.3V405l-3.2-3.2l-4.9-0.7l-5.6,0l-3-3.6l-6.5-5.3l-3.6-6.5l2.3-4.1c0-0.1,3.3-5.3,4.6-7.2  c1.3-1.9,3.2-4.5,3.2-4.5l0.2-0.3v-3.4l2.4-7.3l4.8-2.1v-7.2l-1.3-4.7l0.6-6.8l3.1-4.4l2.7-6l3.5-5.7l-2.1-4.2v-5.3l4.2-4.2l4.3-2.2  v-5.4l-2.6-5.9v-3.5l2-5.4l-2.7-6.7v-3.9l6.6-4.8l4.1-1l0,0.8l2.6,5.7l2.8,2.8l4.5,1l5.5,4.5l1.4,6.7l4.7,7.3l4,1.7l5.7-1.6l3.7-2.2  l4.8,3l4.3,4.8l3.9,4.9l3,2.5l2.4,3.4l4.5,5.5l4.9,5.4l5.8,4.2l0.2,0c0,0,0,0,0,0c0.4,0.1,3.5,0.5,5.3,1c2.2,0.6,7.1-2,8.2-2.6  l2.7-1.8h1.5l0.6,1.2v13.9l-1,4.5l0.5,6.5v3.4l-7.5,4.7l-3.9,4.9l-4.3,2.7v4.7l0.6,0.3c0,0,2.4,1,3.8,1.9c1.1,0.7,2.7,1.7,3.5,2.2  v0.2v2v1.3l-14.3,20.2v6l2.4,4.8l-0.8,3.4l-1.5,1.9h-4.3l-3.7,3.1l1.2,5.3l2.5,2.5l0.7,2l-3.2,2l-6.6,2l-2.9,3.5v3.8l-3.4,3v2.3  l-0.9,3.3l0,5.3l-3.4,4.3l-1.5,6.6l0,0.2l0,0.2c0,0.1,0.3,1.7-1.3,4.1c-1.6,2.4-2,3.9-2.3,5.1c-0.1,0.3-0.2,0.7-0.3,1  c-0.4,1.3-0.9,5-1,6.3l-5,5v9.4l-2.6,3.5l-4.9,2.9l-3.1,3.6l-3.8,6.2l-3.5,0.8l-3.1-3.1l-4.7-4.2l-11.2-1l-8.3,0  c0,0-1.4-0.1-3.2-0.2c0,0,0,0-0.1,0c-0.3,0-0.6,0-0.9-0.1c0,0,0,0-0.1,0c-0.3,0-0.6,0-1-0.1c0.1-0.5,0.1-0.8,0.1-0.8l-0.8-5.3  L252.6,497.8z"/>
            <text x="272.6" y="387.8">함양군</text>
        </g>
        <g class="map-item" name="L017">
            <path class="st0" d="M281.9,269.1l2.5-0.6l17.6-14.9l-0.7-6.3l0.6-5.6l5-7.5l3.6-2.1l3.1,4.3h5.5l4.2-3.5l5.6-4.4h3.6l6.7-1.5l2-6.8  l2.6-2.1l4.8,1.2l3.6,0l0.8-3.4l0.7-7.9l1.3-5l2.9-4.7l7.2-0.6l2.3,0.5v4l3,6l5.8,0l6.2,0.6l4.7,4.7l0.6,7.5l0.8,6.3l4.6-0.9  l2.5-2.5h5l3.4,4.1l4.4-1.5l4.5,0.6l3.7,6.8l5.7,6.4h6.6l3.4-2l12.9-3.2l10.1-1.3l4.9,3.1l1,0.7l-0.8,6.5l-4.3,3.7l-7.8,8.4  l-5.6,2.1l-1.4,10.1l2,3.3v10.4l1.5,3.7l5.2,4.5l0.9,3.5l1.1-0.6c0,0,0.7-0.3,1.1-0.1c0.4,0.2,0.6,0.8,0.7,1.3  c0.6,2.9,1.2,5.3,1.3,5.8v6v0l3.4,6.7l1.7,5.2l-4.5,3.4l-5.3,1.8l-4.8-2.7l-3.3,2.5l-1.4,2.8l0,0.1c0,0.1-1.9,5.2-3.2,7  c-0.9,1.3-5.5,4.1-8.2,5.6l-6.9,4.1l-2.9,7.9l2,6.8l0.6,6.9l-1.9,6.3l-3.8,9l-8.6,8.6l-2.1,11l0.6,4.4l-6.4,0.5l-8.3,0.5l-3.3-5.2  l-6.5-3.3l-6.1,2h-4.4l-0.4-3.1l-2-6.5l-0.5-7l-2.4-4.2l-4.4,0.6l-1.5-0.3v-1.7l-0.5-0.3c0,0-2.5-1.5-3.9-2.4  c-1.1-0.7-2.6-1.4-3.5-1.8v-2.2l3.6-2.3l3.9-4.9l8.2-5.1l0-4.6l-0.5-6.2l1-4.3l0-14.7l-1.4-2.7h-3.4l-3.1,2.1  c-2.4,1.3-5.7,2.6-6.7,2.4c-1.7-0.4-4.4-0.8-5.3-1l-5.1-3.7l-4.8-5.3l-4.4-5.4l-2.5-3.4l-3-2.6l-3.9-4.9L321,298l-6.1-4l-4.3,2.7  l-4.9,1.3l-2.8-1.2l-4.2-6.5l-1.5-7l-6.4-5.3l-4.4-1l-2.1-2.1l-2.3-5.1L281.9,269.1z"/>
            <text x="346.9" y="289.1">거창군</text>
        </g>
        <g class="map-item" name="L003">
            <path class="st0" d="M623.9,696.3l-4.5,9.7l-1.4,10.3l0,0.1c0.1,0.4,1.3,9.3,2,11.9c0.5,2.1-1.1,4.4-1.1,4.4l-1.6,2.2l8.9-2  l5.2-6.5h5.5l2.1,3.1l-1.1,4.5l-5.2,5.2l-3.3,8.6l-3.8,7.5l-4.8,1.8l-11.5,2.6l-5.9-1.2l-1.6-3.2l1.2-5.4l4.3-6.4l-4.6-5.3  l-3.4-1.7l-4.1,3.4l-5.3-1.2l-4.7-2l-8,0.7l-6.1-1.2l-4.6-5.1l2.8-5.7l4.1-2.3h9.2l3.2-2.4l0.8-5.4l-3.6-5.7l-1-0.8c0,0,0,0,0,0  c0.2-0.1,0.5-0.3,0.7-0.4c0,0,0,0,0,0c1.5-0.8,2.7-1.5,3-1.6c0,0,0.1,0,0.1,0l4.7-2.8h6.9l5.4-3.2l3-5.1l2.6-3h4  c1.7,0,3.1-0.8,4.7-1.6c0.9-0.5,1.9-1,3-1.4c0.3-0.1,0.6-0.2,0.9-0.3c0.1,0,0.2-0.1,0.2-0.1c0.3-0.1,0.5-0.2,0.8-0.4  c0,0,0.1,0,0.1,0c0.3-0.1,0.6-0.3,0.9-0.5c0.1,0,0.2-0.1,0.3-0.1c0.2-0.1,0.5-0.3,0.7-0.4c0,0,0.1,0,0.1-0.1l0.4,2.9L623.9,696.3z"/>
            <path class="st0" d="M626.9,780.8c0,0.4-0.5,1.7-1,2.9h-3.5l-4.3,2.4l0.8,0.9c1.4,1.5,2.9,3.5,3,3.9c0,0.9,0.5,3.7,0.6,4.5  c-0.2,0.6-0.6,2.2-0.9,3c-0.2,0.6-2.5,2.7-3.6,3c-0.9,0.2-3.1,0.7-5.4,0c-1.8-0.5-3.5-1.1-4-1.2l-2.7-2.4c-0.9-1-2.2-2.7-2.4-3.5  c-0.3-1.1-1.3-2.4-2.2-3.5c-0.3-0.4-0.7-0.8-0.8-1.1c-0.7-1.1-2.5-2-2.9-2.3l-3.1-2.3v-2.5l1.3-2v-3.3l-2.1-2.1l-7.3-2.8l-5,0  l-4.2-0.3c-0.5-1.7-0.9-3.5-0.8-4c0.3-0.7,3.6-3.4,4.3-3.6c0.8-0.3,6.9-0.6,8.2-0.6c0.5,0,2.6,0.9,4.4,1.8l4.8,4.2l3.9,2.4l4.4-2.2  l3.5-3.1l1.5-2h5.2l4.7,1.9l3.2,2.1l2.4,6.7V780.8z"/>
            <path class="st0" d="M558.9,787.1l-4.2,1.1v1.7c0,0.3-0.6,1.5-1.3,2.5l-2,0.8l-3.3-0.8c-0.6-0.7-2.3-2.7-4.1-3.6  c-0.8-0.4-1.3-0.6-1.6-0.8c-0.4-0.2-0.7-0.3-1.6-0.9c-1.1-0.7-2.6-2.9-3.2-3.8l-0.3-0.9c-0.2-0.5,0.2-2,0.5-3  c0.1-0.3,0.1-0.5,0.2-0.8c0.2-0.7,0.2-0.7,0.8-1.1c0.1-0.1,0.3-0.2,0.4-0.3c1.3-0.9,1.4-3.4,1.4-4.1v-1h-3.5l-2.2,1.1  c-2.3,1.2-2.2,3.1-2.2,4.2c0,0.1,0,0.2,0,0.3c-0.1,0.2-0.7,0.8-1.3,1.1l-3.2,0.9c-0.8-0.3-2.1-0.8-2.6-1.3  c-0.5-0.5-0.7-1.2-0.8-1.9c-0.1-0.3-0.2-0.7-0.3-1c-0.4-1.3-2.1-2.3-2.4-2.5l-0.2-0.1c-1.2-0.4-2.8-1.2-3.1-1.6  c-0.3-0.4-0.3-1.7,0.4-4c0.4-1.2,1.1-1.8,1.9-2.5c0.3-0.2,0.6-0.5,0.8-0.7c0.6-0.6,2.2-0.9,3.8-1.3c0.5-0.1,1-0.2,1.6-0.4  c2.3-0.6,4,0,4,0l4,0.7l4.1,1.3l4.6,2.1l2.1,3.7l1.9,2.3l2.7,1l2.5,2.5l3.9,2.3l2.7,3.9l0.5,3.8L558.9,787.1z"/>
            <text x="553.9" y="765.8">통영시</text>
        </g>
        <g class="map-item" name="L012">
            <path class="st0" d="M637.9,642.2l-2.4,5.5l7.7,5.6l4.3,5.6l0.6,6.5c-2.1,2.9-5.5,7.1-6.7,8c-2.1,1.4-6.4,3.8-9.3,3.8  c-3,0-7.4-1.9-7.5-1.9l-0.2-0.1h-10.6l-2.8,4.7l4.9,2.5l7.5,3.5c0,0-0.1,0-0.1,0c-0.1,0-0.2,0.1-0.3,0.1c-0.3,0.2-0.6,0.3-0.9,0.5  c-0.1,0.1-0.3,0.1-0.4,0.2c-0.3,0.1-0.6,0.3-0.8,0.4c-0.1,0.1-0.2,0.1-0.4,0.2c-0.4,0.2-0.8,0.3-1.1,0.4c-1.3,0.4-2.4,1-3.4,1.5  c-1.3,0.7-2.5,1.4-3.7,1.4h-4.9l-3.3,3.8l-2.9,4.8l-4.5,2.7H590l-5.1,3.1c0,0-2.2,1.1-4.6,2.5l-1.8-3l-5.7-8.2l-1.9,5.8l-0.6,3  l-4,2.7v5.6l-2.4,6.6l-7.1,2.4l-4-1.2l-4.7-4.7l0.7-7.3l-4.7-3.1h-17.8l-5.2,5.2v14.4l-3.4,2.8c-3.2,0.5-7.9,1-9.1,0.7  c-2-0.7-8.4-1.9-8.6-2l-0.5-0.1l-0.4,0.3c-2.1,1.8-4.9,3.7-5.9,3.7c-0.6,0-2.6-0.8-6.4-2.9l-0.6-11.9v-6.6l3.9-6.9v-8.5l2.3-7.8  c2.2-1.3,4.9-2.6,5.5-2.6h3.3l3.6,1l4.8-1.4l-1.9-4.5l-1.4-2.4l-1-5.2l-1.5-3.5v-5.4l3.7-5.1l4-4l1.5-3.4l3.8-3.8l5.9-5.4l-1.8-4.7  l-4.4-5.3c-0.3-1.7-0.6-4.2-0.6-5.9c0-0.6,0-1,0.1-1.3c0.2-1,1-1.4,2.7-2.4c0.7-0.4,1.4-0.8,2.3-1.4c2.7-1.8,4.5-3.9,5-4.5l2.2-1.3  l4.3-0.9l9.5-4.5l8.6-1.9c2.2,0,6,0.1,7,0.4c1.4,0.5,4.2,1.9,4.2,1.9l4.4,2.7l4.8-2.1l8.8-1.9l0.7,2.2l4.2,6.3l4.8,3.2h5.6  c0.4,0.1,2,0.6,2.7,1.9c0.9,1.8,1.4,5.1,1.4,5.1l0.1,0.4l5,3.3l5.6,0.6l0.3-0.3c0,0,2.1-1.7,4.1-1.3c1.7,0.3,3.5,1.5,4.2,2l0.4,3  c-0.3,0.4-0.7,1-0.6,1.7c0.1,0.9,0.9,1.6,2.3,2c3.1,1,8,1,8.2,1l0,0c0,0,0,0,0.1,0l9.9-1l1.9-0.3l0.8,1.6L637.9,642.2z"/>
            <text x="537.9" y="667.2">고성군</text>
        </g>
        <g class="map-item" name="L002">
            <path class="st0" d="M580.6,603.7L580.6,603.7l-0.8,1.3l-0.4,0.6l-8.9,1.9l-4.1,1.8l-3.6-2.2c-0.1-0.1-3-1.5-4.6-2  c-1.6-0.5-6.7-0.5-7.7-0.5l-9.1,2l-9.5,4.5l-4.5,1l-2.8,1.7l-0.1,0.1c0,0-1.9,2.4-4.7,4.2c-0.8,0.5-1.5,1-2.2,1.3  c-1.8,1-3.2,1.9-3.6,3.7c-0.5,2.1,0.4,7.7,0.5,8.3l0,0.3l4.5,5.5l1.2,3.1l-4.9,4.5l-3.5,3.5c0,0,0,0,0,0c-0.2-0.1-0.5-0.2-0.8-0.3  c0,0,0,0,0,0c-0.3-0.1-0.5-0.2-0.8-0.3c0,0,0,0,0,0c-0.3-0.1-0.6-0.2-0.9-0.4c0,0,0,0,0,0c-0.3-0.1-0.5-0.2-0.8-0.4c0,0-0.1,0-0.1,0  c-0.2-0.1-0.5-0.2-0.7-0.4c0,0-0.1,0-0.1-0.1c-0.2-0.1-0.4-0.2-0.6-0.3c0,0-0.1,0-0.1-0.1c-0.2-0.1-0.4-0.2-0.5-0.3c0,0,0,0,0,0  c-0.2-0.1-0.3-0.2-0.4-0.3c-1.3-1.3-4.6-3.2-5.7-3.9l-0.4-1.6c-0.3-1.2,0.1-3.1,0.4-4l2.3-1.4l1.8-2.4v-9.2l-0.4-0.3  c-0.1-0.1-2.5-2-5-3.5c-2.5-1.5-5-2.5-5.1-2.5l-6.9-1.6l-6.7,3.6l-4.3,1.9l-3.5,0.4l-0.6-1.6v-1.3c0-1.6-0.9-4-1.1-4.3l-0.1-0.2  l-3.3-3.3l-0.4,0c-0.1,0-0.2,0-0.3,0c-1.5-0.2-4.8-0.6-5.9-0.9c-1.5-0.5-6.1-1-6.6-1l-0.3,0l-4.2,2.1l-4.4,2l-3.4,1.5l-3.8,2.8  c-0.9-0.2-3.1-0.6-5.3-1.4c-0.7-0.2-1.1-0.5-1.3-0.6l0.1-0.1l-1.1-5.3v-10l-2.2-4.5l-6.5-2.7l-9.1,1l-0.1,0c0,0,0,0-0.1,0  c-0.7,0.2-6.4,1.4-8.5,1.4c-0.3,0-0.6,0-0.8,0c-0.1,0-0.1,0-0.2,0c-0.2,0-0.3,0-0.5,0c-0.1,0-0.1,0-0.2,0c-0.2,0-0.3,0-0.4,0  c0,0-0.1,0-0.1,0c-0.1,0-0.3,0-0.4-0.1l-2.5-5.5l-4.1-7.6l-6.1-2l-5.6-5.6l-1.2-3.6l-0.6-10.6h5.5l2.2-5.9l2.4-5.9h15.7l7.2-1.4  l3.5-5.6l2.7-7.3l3.7-5l8.4-5.1l6.5-7.1l7.3-1.3l3.5-5.7l3-5.4h8.6l15-2l2.7,0.4l7.6-4.6l5.4-2.3l4.8,2.2l6.1,7.5c0.1,1,0.5,4,1,5.3  c0.1,0.3,0.3,0.9,0.6,1.6c0.7,1.9,2.3,6.5,2.3,7.4c0,1.1,0.9,2.9,2.3,5.6c0.6,1.1,1.1,2.1,1.2,2.6c0.5,1.6,4.8,6.3,6.1,7.7l4.3,2.7  l4.5,1l4.3,2.4c0.1,0.1,2.7,1.6,4.9,1.6h11.2l2.6,0.8v0l2,0.6l5.1,5.1l3.4,6.7l6.7,7.3l12.9,5l3.8,1.9l3.1,2.7l0.2,0.6  c0.2,0.5,0.3,1,0.5,1.4c0,0,0,0,0,0c0.1,0.4,0.3,0.8,0.4,1.2c0.1,0.2,0.1,0.4,0.2,0.5c0.1,0.2,0.1,0.4,0.2,0.6  c0.1,0.2,0.1,0.4,0.2,0.5c0.1,0.2,0.1,0.5,0.2,0.7c0,0,0,0,0,0.1c0.3,0.9,0.4,1.5,0.4,1.9c0,0,0,0,0,0c0,0.1,0,0.2,0,0.3  c0,0.9-1.7,7.6-2.9,12l-2.4,8.2L580.6,603.7z"/>
            <text x="450.6" y="573.7">진주시</text>
        </g>
        <g class="map-item" name="L009">
            <path class="st0" d="M515.6,425.5l0.8-2.8c0.8-0.6,2.4-1.8,3.4-2.1c0.7-0.2,1.3-0.7,2-1.3c1.1-0.9,2.3-1.9,4.2-2.1  c3.5-0.5,8.8-2.4,9.1-2.5l0.2-0.1l6-5l5.2-3.3l10.4-0.9l5.1,1.9c0.7,0.4,4.1,2.2,5.7,2.9c0.1,0,0.2,0.1,0.3,0.1c1.5,0.5,5.5,1.5,8,2  c2.5,0.5,2.6,0.5,5.6,0.5c3.4,0,6.4-3.9,6.7-4.3l1.5-3.6c0,0,0.1,0.1,0.1,0.1c0,0.1,0.1,0.1,0.1,0.2c0.1,0.1,0.1,0.2,0.2,0.3  c0.1,0.1,0.1,0.1,0.2,0.2c0.1,0.1,0.2,0.2,0.3,0.3c0.1,0.1,0.1,0.1,0.2,0.2c0.1,0.1,0.2,0.2,0.4,0.3c0.1,0.1,0.1,0.1,0.2,0.2  c0.2,0.1,0.3,0.3,0.5,0.4c0.1,0,0.1,0.1,0.2,0.1c0.2,0.2,0.5,0.3,0.7,0.5c0.1,0,0.1,0.1,0.2,0.1c0.2,0.1,0.4,0.3,0.6,0.4  c0.1,0.1,0.2,0.1,0.3,0.2c0.2,0.1,0.3,0.2,0.5,0.3c0.1,0.1,0.2,0.1,0.3,0.2c0.2,0.1,0.3,0.2,0.5,0.3c0.1,0.1,0.2,0.1,0.3,0.2  c0.1,0.1,0.3,0.2,0.4,0.3c0.1,0.1,0.2,0.1,0.3,0.2c0.1,0.1,0.3,0.2,0.4,0.3c0.1,0.1,0.2,0.1,0.3,0.2c0.1,0.1,0.3,0.2,0.4,0.2  c0.1,0.1,0.2,0.1,0.3,0.2c0.1,0.1,0.3,0.2,0.4,0.2c0.1,0.1,0.2,0.1,0.3,0.1c0.1,0.1,0.3,0.1,0.4,0.2c0.1,0,0.2,0.1,0.2,0.1  c0.2,0.1,0.4,0.2,0.6,0.3l6,7.9l-0.9,7.4l-5.8,3.2l-5.9,2.5l-2.9,1.8l-1.2,4.7l2.6,5.2l5.7,6.3l6,3l6.7,4.3l4.6,5.1l0.9,5.2  l-1.8,1.7l-1.1,4.2l0,5.4l-2.5,4.2l-4.8,0.4l-4.6-0.5l-4.3,2.5l0.6,5.1l1.4,4.8l-1.6,3.9l-6-0.4l-4.5-2.2l-2.9-5.3l-5.1-4.6l-3-2.5  l-2.4-1.2l-5.5,0.5l-4,2.8l-1.1,5.6l2.5,6.5v3l-2.2,4.5l-5.9,3.9l-2.8,4.5l1.7,6.1l3.9,4.4l0.7,2.8l-2,0.7l-6.7,1.6l-3.8,4.9  l-0.8,5.5l-0.5-0.1l-11.6,0c-1.4,0-3.3-1-3.9-1.4l-4.4-2.5l-4.5-1l-3.7-2.3c-0.6-0.7-1.2-1.4-1.8-2.1c-0.1-0.1-0.1-0.2-0.2-0.2  c-1.4-1.6-2.7-3.2-3.2-4c-0.1-0.2-0.2-0.3-0.3-0.4c0-0.1-0.1-0.1-0.1-0.2c-0.2-0.6-0.7-1.7-1.3-2.9c-0.7-1.4-2-4-2-4.7  c0-1.2-1.2-4.5-2.5-8.1c-0.2-0.7-0.4-1.2-0.5-1.5c-0.4-1.1-0.8-4.2-0.9-5.2l0-0.3l-6.7-8.3l-6-2.7l-6.3,2.6l-7.2,4.3l-2.4-0.4  l-4.8-7.8l-1.8-6.6l2.1-3.1l4-3.1h2.9l5.1,1.7l1.7-3.4l8.7-3.4l0.1-0.1c1.5-1.3,3.6-2.7,4.3-2.7c1.6,0,6.7-1.7,7.7-2l0.3-0.1l3.3-5  v-10.9l2.8-5.2l3.5-6.1l1-7.1l0-4.8L515.6,425.5z"/>
            <text x="515.6" y="470.5">의령군</text>
        </g>
        <g class="map-item" name="L018">
            <path class="st0" d="M474.3,247.1l-0.6,4.9l1.5,6.7l9,2.1l4.2,2.4l3.9,9.8l8.7,6.7l5,5l1.9,5.6l1.3,10.3V312  c-0.6,1.2-2.1,3.8-3.5,4.7c-1.7,1.2-4.4,3.3-5.1,3.8l-5.7,1.4l-1,5.7h6.1l5.5,3.7l2,2.7l5.6,2.8l6.1,0.7l6.4,0.8v-4l3.3-3.9l2.9,0.5  l1.9,3.2l4.7,1.6l4.3-2.8l3-1.2h4.4l3.4-0.7h2.9l6.3,3.2l4.7,1.4l5.6,1.9l5.7,8.2l1.1,2.1l-0.8,1.8l-1.5,5.6l-1.1,6.8l2.1,4.6  l1.4,4.7c-0.2,1.5-0.6,4.9-0.9,6c-0.2,0.5-0.6,1.1-1,1.8c-0.7,1.1-1.5,2.3-1.5,3.5c0,0.5-0.1,1-0.2,1.6c-0.1,1-0.3,2.2-0.3,4.3  c0,2.9,1.2,4.6,2.4,6.2c0.4,0.5,0.8,1.1,1.2,1.7c1,1.6,1.9,2.3,2.7,2.8c0.5,0.4,0.9,0.7,1.2,1.1c0.6,0.8,1.7,1.4,3,2.1  c0.6,0.3,1.2,0.6,1.7,0.9l-0.8,1.9l-1,2.4c0,0,0,0,0,0.1c-0.8,1.1-3.1,3.4-5,3.4c-2.9,0-2.9,0-5.2-0.5c-2.4-0.5-6.3-1.5-7.8-1.9  c-1.1-0.4-4.5-2.2-5.7-2.9l-5.8-2.1l-11.3,1l-5.6,3.6l-5.9,4.9c-0.9,0.3-5.5,1.9-8.5,2.4c-2.5,0.4-4.1,1.6-5.2,2.6  c-0.5,0.4-1,0.8-1.4,0.9c-1.6,0.5-4,2.4-4.2,2.6l-0.2,0.2l-1.2,4.1l2,4.6v4.1l-0.9,6.6l-3.4,5.8l-3.1,5.6v10.8l-2.6,3.9  c-2.3,0.7-5.8,1.8-6.7,1.8c-1.6,0-4.4,2.2-5.4,3.1l-9.1,3.5l-1.3,2.5l-3.8-1.3h-3.9l-4.7,3.7l-2.2,3.2l-3.2-1.4v-8.4l-5.6-3.5  c-2.4-2.4-4.9-5.5-4.9-6.4c0-2.3-4.5-5-6.4-6.1l-10.6-4l-9-5.2c-2.1-1.6-4.9-4.1-5.9-5.5c-0.1-0.2-0.2-0.4-0.3-0.5  c-0.4-1.1-1.4-2.6-2.4-4.2c-0.9-1.4-1.9-2.8-2.2-3.7c-0.6-1.9-2.6-9.7-2.6-9.8l-3.3-7.9l-2.6-8.5l-0.4-2.8h0l-0.2-1.3l-0.1-0.7h0  l-0.6-4.2l1.9-10l8.4-8.4l4-9.4l2.1-6.9l-0.7-7.4L422,351l2.4-6.6l6.2-3.7c0.8-0.4,7.5-4.1,8.9-6.2c1-1.5,2.3-4.8,3-6.4  c0.2-0.5,0.3-0.8,0.4-1l1.2-2.4l1.9-1.4l4.4,2.5l6.5-2.2l6-4.5l-2.2-6.6l-3.2-6.5v-5.7l0-0.2c0,0-0.7-2.6-1.3-5.9  c-0.3-1.4-0.9-2.3-1.8-2.7c-0.6-0.3-1.2-0.3-1.7-0.3l-0.5-1.9l-5.3-4.6l-1.2-2.9v-10.6l-1.9-3.2l1.2-8.2l4.9-1.8l8-8.7l4.8-4.2  l0.7-6.3l4.9,3.3L474.3,247.1z"/>
            <text x="454.3" y="397.1">합천군</text>
        </g>
        <g class="map-item" name="L007">
            <path class="st0" d="M764.3,728.7c-0.1,0.4-1,1.2-1.8,1.7l-2.9,1.1l-1.5,3l3.3,2.9l0.8,2.8l-0.2,2.1l-3.2,1l-3.5-2.2h-5.1l-3.8,1.4 l-2.7,1.6l-0.8,4l5.5,0.6l5,0.5l1.5,1.9l0.9,5.6l2,5.1l4.2,5.7l-1.2,3.5l-2.4,1.2h-6.6l-1.9-2.6c0.3-1.4,0.9-5.1-1.9-7.9 c-0.4-0.4-1.6-1.6-2.8-1c-1.2,0.7-1.1,2.8-0.9,4.2l-0.4,3.3l-2.5,1.5l-1.9-1v-5.3c0-1.8-1.9-3.8-2.3-4.2l-0.4-0.4l-0.5,0.1 c-0.1,0-3.3,0.6-5,2.2c-0.9,0.9-1.2,2-0.8,3.1c0.2,0.5,0.4,0.9,0.6,1.1l0.9,3.6l0.5,4.1l-1.3,3.5c-0.3,0.3-1.6,1.5-4.5,1.5 c-2.1,0-2.6,0-2.8,0.5c-1.7,0.3-2.4,0.8-2.6,1.5c0,0.1,0,0.2-0.1,0.3l-1.5,2.9l0.6,4l2.6,4.1l2.2,2.7l3.9,1.7l4.7-0.5l3.1,2.7 l-1,3.5l-2.9-0.4l-4.4-2.2l-2.7,2.2l-5.6,0.5l-5.4,2l3.2,4.5l2.7,2.7l-0.3,1.8c-1.3,0.3-4.2,0.8-6,0.8c-1.9,0-3.1,0.9-4,1.7 c-0.5,0.4-0.9,0.7-1.2,0.8c-0.8,0.3-2.6-0.1-3.7-0.5l-4.3-2.6l0.4-4.5l2.5-3.5l-0.7-4.6l-4-0.6l-5.3-3.1c-0.1-1.4-0.3-4.2,0-5.5 c0.3-1.1,2-1.6,2.6-1.7l0.6-0.1l2-5.9l-4.8-2l-6.9,4.4l-2.5-1.1l-0.7-2.5l3.6-4.7l-5.7-1.4l-4.3,1.9l-2.3-1l0.7-3.2l4.4-3.1l6.9-1.5 l5.9-3.7l1.6-5.3c0.1-0.4,1-4.1,1-5.7c0-1.5,0-4.6-1-8.1c-1.1-3.8-4.2-5.9-4.3-6l-0.3-0.2l-4,0.7l-1.1,4l-1.3,3.5l-4.8,1.3l-8.1,0.5 l-2.4,2.4l-1.5,6.1l-1.6,3.1l-3.2-0.7l-1.7-3.5l-1.9-4.2v-5.1l-6-1.1l-3.1-2.2l-4.1-6v-9.4l1.9-7l7.3-7.8l5.3-6.8l4.2-2.8l4-1.3 c1,0.2,4.3,1,5.5,1.4c0.6,0.2,1.7,0.8,2.8,1.4c1.2,0.7,2.3,1.3,3.1,1.5c0.9,0.3,2,1.4,2.5,2.1l0.3,0.4h3.9l2.5-3h3.9l2.3,3.2 l5.5,2.5l1.8,1.8l3,1.8l4.7-0.8l-2.6-4.6l-2.4-7.3c-0.5-1.6-4.1-3.9-5.5-4.8l-2.3-6l-0.9-6.6c0.1-0.5,0.6-1.9,1.3-3 c0.5-0.8,2.8-2,4.4-2.5l5.1-0.9l6.4,1.5l6-1.6l1.8-3l0.5-4.5c0.3-0.6,1.6-2.9,3.2-4.5c1.7-1.7,4.4-2.2,4.4-2.2l1.6-0.5 c1.6-0.5,2.2-1.1,2.4-1.2l0.3-0.3v-5l-1.5-3.6l-1.4-5l1.2-3.3l4-2.7l3.1-1l4.5,0.6l3.3,1.8l3.8,4.7l-2,5.9c-1.3,0.6-5.1,2.2-6.2,2.8 c-1.6,0.8-2.5,2.8-2.5,4.2c0,0.7-0.4,3.7-0.6,5.4l-0.1,0.4l2.9,3.6l5.6,5l3.8,4.5l2.1,3.6l-0.3,4l-2.2,0.9l-1.1,4.6l0,0.2 c0,0.2,0.3,4,0.7,5.4c0.3,1.1,0,5.2-0.3,6c-0.3,1-0.2,3.8-0.1,5.2l-2.7,2.7l-3,3.6l-1.5,3.4l4.9,2.7l2.4-1.6l3.3-2l2.5-2.1l4.2,0.3 l2.5,1.7c0.7,1.4,1.4,2.9,1.4,3.2C764.9,725.4,764.6,727.9,764.3,728.7z"/>
            <text x="684.3" y="738.7">거제시</text>
        </g>
        <g class="map-item" name="L001">
            <path class="st0" d="M783.4,598.7l8,7.4l5.5,3.7l-0.5,4.8l-3.4,2.1l1.4,7.8c0,2.1-0.6,4.6-1.3,4.9c-1.4,0.5-4.9,0.1-6.1,0l-7.5,0  l-2.7-3.3v-6.6l-4.3,4.3l-3.8,5l-6,0.6l-5.5-1.2l-4-3.3l-5.3-0.7l-6-3.3H739l-6.2,1.8l-1.9-2.4l1.2-4.6l3.2-5.1l0.1-0.3  c0-0.1,0.7-3-1.4-7.8c-0.2-0.4-0.3-0.8-0.4-1c0-0.3-0.1-0.6-0.2-0.8c-0.8-2.3-3.5-3.7-3.8-3.9l-0.8-0.4l-3.2,5.6v3.8l-2,2l-2.5-0.5  c-0.8-0.6-3.7-2.7-6.6-3.9c-2.7-1.1-3.3-3.2-3.3-3.2l-0.1-0.3l-0.3-0.2c-0.1-0.1-2.7-2-4.6-3.3c-1.7-1.1-4-0.7-5.8-0.4  c-0.7,0.1-1.4,0.2-2,0.2c-0.8,0-1.9-1.9-2.3-3.3l-3.3-9.1c-0.1-0.7-1.3-6-2-7.9c-0.4-1.3,0.3-3.7,0.7-4.6l1.9-5.6l-5.2,1l-7.1,5.7  v7.9l3.4,9.4l3.2,7v4.9l-1.3,3.9v6l3.1,1.6l3.8,2.5l3.9,4.5l5.7,5.7l0.5,3.1l-4.6,3.8l4.5,2.7l3.4,1.2v1.5l-3.5,3.5l-5.7,2.5  l-10.4,3.7l-1.3-2.2l1.4-6.4l-4.7-1.6l-3.1-2.1l1.8-4.2l-2.4-5.6h-4.5l-5-1.1v-4.5l-4.4-1.8l-0.4,0.3c-1.9,1.2-5.5,2.9-7.1,2.5  c-2.5-0.6-6-0.7-6.7-0.7l-3.5-0.7l-5.9,3.3l-10.2-1.4l-2,3.9l6.4,5.7l4.2,4.8l-1.1,0.2l-9.8,1c-0.1,0-0.4,0-0.8,0c0,0,0,0,0,0  c-0.1,0-0.2,0-0.3,0c0,0-0.1,0-0.1,0c-0.1,0-0.2,0-0.4,0c0,0-0.1,0-0.1,0c-0.1,0-0.3,0-0.4,0c0,0-0.1,0-0.1,0c-0.1,0-0.3,0-0.4,0  c-0.1,0-0.1,0-0.2,0c-0.1,0-0.3,0-0.4,0c-0.1,0-0.1,0-0.2,0c-0.1,0-0.3,0-0.4,0c-0.1,0-0.1,0-0.2,0c-0.1,0-0.3,0-0.4-0.1  c-0.1,0-0.1,0-0.2,0c-0.1,0-0.3,0-0.4-0.1c-0.1,0-0.1,0-0.2,0c-0.1,0-0.3,0-0.4-0.1c-0.1,0-0.1,0-0.2,0c-0.1,0-0.3-0.1-0.4-0.1  c-0.1,0-0.1,0-0.2,0c-0.1,0-0.3-0.1-0.4-0.1c0,0-0.1,0-0.1,0c-0.2,0-0.4-0.1-0.5-0.2c-0.6-0.2-0.8-0.4-0.9-0.5  c0-0.1,0.1-0.2,0.2-0.2l0.5-0.3l-0.6-4.9l-0.3-0.3c-0.1-0.1-2.7-2.1-5.3-2.7c-2.3-0.5-4.6,0.8-5.4,1.4l-4.3-0.4l-3.9-2.6  c-0.2-1-0.7-3.6-1.5-5.3c-0.1-0.1-0.2-0.3-0.2-0.4c-1.3-2-3.8-2.5-3.9-2.6l-5.3,0l-4-2.7l-3.8-5.6l-1-2.9l2.9-4.5l2.6-8.6  c0.5-1.8,3-11,3-12.6c0-0.1,0-0.2,0-0.4c0-0.1,0-0.2,0-0.3c0-0.1,0-0.1,0-0.2c0-0.1-0.1-0.3-0.1-0.4c0,0,0-0.1,0-0.1  c0-0.2-0.1-0.3-0.1-0.5c0,0,0,0,0,0c-0.1-0.5-0.3-1.1-0.5-1.8c0-0.2-0.1-0.3-0.1-0.5c0-0.1-0.1-0.2-0.1-0.3  c-0.3-0.8-0.5-1.7-0.8-2.4l4.2-0.6l6.1-3.5l0,0l0,0l3.1-2.2l3.8,0.8l0.4,2.2v7.7l3.3,3.9l3.1,1.8c0.1,1.6,0.9,3.8,2.9,3.8h6.2l4-2.8  l0.1-0.3c0,0,0.5-1.4,1.8-3.2c0.1-0.2,0.3-0.4,0.5-0.6c1.2-1.4,2.7-2.6,3.1-3l3.1-0.9l5.4-1c0.7-0.1,4.1-0.7,4.7-2.6  c0.5-1.6,0.5-6.2,0.5-6.7V566l-2.1-5.3l-4-4.5c-0.1-0.2-0.2-0.3-0.3-0.5c0-0.1-0.1-0.2-0.2-0.3c0-0.1-0.1-0.2-0.1-0.3  c0-0.1-0.1-0.2-0.1-0.3c-0.1-0.2-0.1-0.3-0.2-0.5c0,0,0-0.1-0.1-0.1c-0.3-0.7-0.5-1.5-0.7-2.1c0,0,0,0,0,0c-0.1-0.2-0.1-0.4-0.1-0.6  c0-0.2-0.1-0.4-0.1-0.5c0-1.8,0.9-4.6,0.9-4.6c0,0,1.5-3.9,2.9-6.2c0.3-0.6,0.8-1.1,1.2-1.6c1.3-1.5,2.9-2.5,2.9-2.5l0.4-0.3  l0.5-3.7l3.9-0.8l5.9,2.5l6.2-1l5.5-2c0.5-0.1,2.9-0.5,4.2-0.5c1,0,4.8,1.2,7.1,1.9l0.2,0.1l4.5-0.6l0.2-0.2  c0.1-0.1,1.6-1.7,2.2-3.3c0.5-1.6-1.8-5.7-3.4-8l-0.4-4l0.9-2.8l1.1-4l-2.9-2.9c0,0-0.7-0.7-0.7-1.8c0-1.6-1.6-4.2-2.1-4.9  c-0.1-0.2-0.4-1.3-0.4-4c0-3.1-2-4.8-3-5.5v-2.6l2.3-3.2l2.6-7.1l0.1-2l4-3l4-3.1l6.8,1.8c0.2,0.1,0.7,0.5,1.3,0.8  c0.9,0.6,2,1.4,2.9,2.1c0.1,0.1,0.2,0.2,0.3,0.3c0.2,0.2,0.4,0.3,0.5,0.5c1.5,1.5,4.6,3.3,5.1,3.6c0,0,0.1,0,0.1,0l0.3,0.2l6.9-0.5  l0.3-0.1v0l1.5-0.8l0.3-0.2v0l3.3-1.8l6.5-0.5l5.6,1.9c0.1,0.1,0.2,0.2,0.4,0.2c1.6,1,4.7,3,5.7,4c1.5,1.5,7.8,5.6,8.5,6l0.2,0.1  c1.2,0.4,4.5,1.6,5.7,2.3c0.1,0.1,0.2,0.1,0.4,0.2c0,0,0.1,0,0.1,0.1c0.1,0,0.2,0.1,0.3,0.1c0.1,0,0.1,0,0.2,0.1  c0.1,0,0.2,0.1,0.3,0.1c0.1,0,0.2,0,0.2,0.1c0.1,0,0.3,0.1,0.4,0.1c0.1,0,0.2,0,0.3,0.1c0.1,0,0.3,0.1,0.4,0.1c0.1,0,0.2,0,0.3,0.1  c0.1,0,0.3,0.1,0.5,0.1c0.1,0,0.2,0,0.3,0.1c0.2,0,0.3,0.1,0.5,0.1c0.1,0,0.2,0,0.3,0.1c0.2,0,0.3,0.1,0.5,0.1c0.1,0,0.2,0,0.3,0.1  c0.2,0,0.3,0.1,0.5,0.1c0.1,0,0.2,0,0.3,0c0.2,0,0.4,0.1,0.5,0.1c0.1,0,0.2,0,0.2,0c0.2,0,0.4,0.1,0.6,0.1c0.1,0,0.1,0,0.2,0  c0.2,0,0.4,0.1,0.6,0.1c0,0,0.1,0,0.1,0c0.2,0,0.4,0.1,0.6,0.1c0,0,0,0,0,0c0.4,0,0.7,0.1,1,0.1l-0.4,1.7l-2.7,5.9  c-1,0.3-3.2,1.2-3.7,3.6c0,0.2-0.1,0.5-0.2,0.7c0,0,0,0,0,0.1c-0.6,1.7-1.9,3.8-2.4,4.5l-2.5,0.8l-8.3,0.5l-3.9,7.2l1,5l-0.9,2.6  l-2.2,4.3l2.7,5.4l0.3,0.6h0.6c0,0,0.8,0,1.4,0.7c0.1,0.1,0.2,0.2,0.3,0.3c0.5,0.8,1.4,1.4,2.3,2.1c0.7,0.5,1.9,1.4,1.9,1.8  c0,1.5,1.5,5,2,6.1v6.2l1.6,6.4l5.7,6.7l6,3.5l2,1.2v4.8c0,0.6-0.2,1.2-0.4,1.9c-0.3,0.8-0.5,1.6-0.5,2.5c0,1.7,2.2,5.2,2.6,5.9  l0.1,0.2l0.2,0.1c1.9,1.2,6.3,4.1,7.9,4.1c0.8,0,1.1-0.2,1.5-0.4c0.1,0,0.4,0,1.6,0.4c2.9,1,6.3,2.4,6.3,2.4l1.2,0.6l-0.7,1.2  L783.4,598.7z"/>
            <text x="653.4" y="558.7">창원시</text>
        </g>
        <g class="map-item" name="L010">
            <path class="st0" d="M672.4,487.2v4.4l0.6,0.3c0,0,0,0,0,0c0,0,0,0,0.1,0c0,0,0.1,0.1,0.1,0.1c0,0,0.1,0.1,0.1,0.1  c0.1,0.1,0.2,0.1,0.3,0.2c0,0,0.1,0.1,0.1,0.1c0.1,0.1,0.2,0.2,0.3,0.3c0,0,0.1,0.1,0.1,0.1c0.1,0.1,0.2,0.3,0.3,0.4  c0,0,0.1,0.1,0.1,0.1c0.1,0.2,0.2,0.4,0.3,0.6c0,0,0.1,0.1,0.1,0.1c0.1,0.2,0.2,0.4,0.2,0.7c0,0.1,0,0.1,0.1,0.2  c0.1,0.3,0.1,0.6,0.1,1c0,3.5,0.5,4.7,0.6,4.9l0.1,0.1c0.7,1.1,1.8,3.1,1.8,3.9c0,1.8,1.1,3,1.3,3.2l2,2l-0.8,2.8l-1.1,3.2l0.5,4.9  l0.1,0.2c1.9,2.8,3.4,5.8,3.3,6.5c-0.3,0.9-1,1.8-1.5,2.3l-3.4,0.4c-1.3-0.4-5.4-1.8-7.2-1.9c-0.1,0-0.2,0-0.3,0  c-1.5,0-4.5,0.5-4.6,0.5l-5.5,2l-5.5,0.9l-5.9-2.5l-5.9,1.2l-0.5,4.2c-0.9,0.6-3.1,2.4-4.3,4.5c-1.5,2.5-3,6.4-3,6.6  c0,0.1-1,3.1-1,5.2c0,2.1,1.9,5.9,2.1,6.3l4,4.5l1.8,4.6c0,1.9-0.1,5-0.4,5.9c-0.2,0.5-1.7,1.1-3.2,1.3l-5.5,1l-3.6,1l-0.2,0.1  c-0.1,0.1-2.6,2.1-4.1,4.1c-1.2,1.6-1.8,2.8-2,3.4l-2.9,2.1h-5.6c-0.7,0-1-1.8-1-2.4v-0.6l-3.8-2.2l-2.6-3v-7l-0.6-3.8l-6-1.2  l-3.8,2.7l-5.7,3.3l-4.2,0.6l0,0l-0.1-0.2l-3.6-3.1l-4.2-2.1l-12.6-4.8l-6.1-6.6l-3.5-6.9l-5.7-5.7l-2.8-0.8l0.7-5.3l3.1-3.9  l6.1-1.4l3.8-1.3l-1.3-5.1l-3.9-4.4l-1.3-4.8l2.1-3.4l5.9-4l2.7-5.4v-3.9l-2.4-6.3l0.8-4.2l2.9-2.1l4.4-0.4l1.6,0.8l2.8,2.4l4.8,4.3  l3,5.5l5.4,2.7l7.8,0.6l2.4-5.9l-1.6-5.2l-0.4-3.7l2.6-1.5l4.2,0.5l6-0.5l3.4-5.6v-5.6l0.9-3.5l1.4-1.3l5.2,2.2l5.6,2h9.3l5.7-3.6  l3.3-3.3h7.2l4.1,2.3l5.9,3.9l9.3,3.1l5.1-0.4l0,1.2l-2.4,6.6L672.4,487.2z"/>
            <text x="592.4" y="520.2">함안군</text>
        </g>
        <g class="map-item" name="L011">
            <path class="st0" d="M581.1,349.7l1.1,1.9l4.8,3.4l5.2,1.8l1.5-5.9c1.1-0.5,4-2,5.6-3.1c0.7-0.5,1.5-0.6,2.3-0.8  c1.2-0.3,2.6-0.6,4.3-1.8c1.7-1.3,2.5-2.1,2.8-2.7l4.1-1.8l3.8-1.3l9.8-1.3l3.6-0.6l3.2,1.9h5.1l4.8-2.8l3.3-3.2l-2.2-5.7l-0.6-5.1  v-4l1.7-1.3l3.2,1.6l3.8,3.8l3.7,5l0.6,6.2v5.9l0.8,3.9l4.7,3.4l1.7,2.9v4.1l0.3,0.3c0.2,0.2,5.3,4.6,7.9,6.6  c2.5,1.9,6.4,5.8,6.5,5.8l0.3,0.3h5.6l-1.8,5.4l1.6,5.8l1.4,4.1l-0.7,1.8l-3.3,1.9l-3.2,4.3l-1,4.2c-0.1,0.3-0.5,3.4,0.6,5.1  c0.8,1.2,2.2,3,2.8,3.7v2.6c0,0.8-0.7,2.6-1.2,3.9c-0.3,0.7-0.5,1.3-0.7,1.7c-0.5,1.5-1,5.6-1,6.1l0,0.2l0,0.2c0,0,0.5,2,1,5.3  c0.5,3.5,1.9,7.9,2,8l0.1,0.2l0.1,0.1c0.1,0.1,2.7,3.2,5.3,4.2c2.6,1,4.7,1.5,6.3,1.5c1.4,0,5.2-0.4,5.9-0.5l3.5,0.4  c1.1,1.2,2.7,3,3,3.8c0.1,0.4,0.2,0.8,0.3,1.1c0.2,0.9,0.5,1.8,1.3,3c0.3,0.4,0.5,0.6,0.6,0.9c0.4,0.6,0.7,0.9,1.7,3.4  c1.4,3.2,1.4,6,1.4,6l0,0.2c0,0.1,0,0.2,0,0.3c0,0.2,0.1,0.4,0.1,0.7c0,0.1,0,0.3,0,0.4c0,0,0,0,0,0c0.1,0.8,0.1,1.7,0,2.5  c0,0,0,0,0,0.1c0,0.2-0.1,0.4-0.1,0.5c-0.5,2.1-0.5,6.1-0.5,7.6c0,1.6,0.5,4.2,1,5.7c0,0,0,0.1,0,0.1c0,0,0,0,0,0c0,0,0,0.1,0,0.1  c0,0,0,0.1,0,0.1c0,0.1,0,0.1,0,0.2c0,0,0,0.1,0,0.1c0,0.1,0,0.1,0.1,0.2c0,0,0,0.1,0,0.1c0,0.1,0,0.1,0.1,0.2c0,0.1,0,0.1,0,0.2  c0,0.1,0,0.1,0.1,0.2c0.1,0.2,0.1,0.5,0.2,0.8l-0.4,0.2l-5.9,0.5c-0.7-0.4-2.7-1.6-4-2.7c-0.2-0.2-0.3-0.3-0.5-0.4  c-1.5-1.5-5.4-4-5.6-4.1l-8.1-2.2l-4.8,3.7l-3.7,2.8l-1,0.1l0,0l0,0l-4.9,0.4l-8.5-2.8l-5.9-3.9l-4.7-2.6H645l-3.7,3.7l-5.1,3.2  h-8.4l-5.2-1.9l-4.4-1.8l0,0l-1-0.4l-0.9-5.6l-5.1-5.6l-7.1-4.6l-5.8-2.9l-5.2-5.7l-2.2-4.5l0.8-3.2l2-1.2l5.9-2.5l6.9-3.7l1.1-9.3  l-6.8-8.9l-0.2-0.1c-1.1-0.6-2.1-1.2-3.2-1.8c-3.1-1.8-5.9-3.7-6.1-4.5c0-0.2-0.1-0.3-0.2-0.5c0-0.1-0.1-0.2-0.1-0.2  c0-0.1-0.1-0.1-0.1-0.2c-0.1-0.1-0.1-0.2-0.2-0.3l0-0.1l-0.6-0.5l-0.2-0.1c0,0,0,0-0.1,0L589,401l0,0.1c-0.5-0.3-1-0.6-1.5-0.8  c-0.8-0.4-1.7-0.9-2.1-1.2c-0.1-0.1-0.1-0.1-0.1-0.2c-0.5-0.8-1.1-1.2-1.7-1.6c-0.7-0.5-1.4-1-2.2-2.2c-0.4-0.7-0.8-1.3-1.3-1.9  c-1.1-1.6-2-2.8-2-5c0-2,0.2-3.1,0.3-4c0.1-0.6,0.2-1.2,0.2-1.9c0-0.6,0.7-1.6,1.2-2.4c0.5-0.7,1-1.5,1.2-2.2c0.5-1.5,1-6.1,1-6.6  l0-0.2l-1.5-5.1l-1.9-4.3l0.9-6l1.4-5.3L581.1,349.7z"/>
            <text x="606.1" y="399.7">창녕군</text>
        </g>
        <g class="map-item" name="L005">
            <path class="st0" d="M872.7,527.8l-1.5,5.2l-1.9,9.7l-4.3,8l-9.9,3.1l-11.1-2l-5.1,1.5l-3.1,4.4l-3.5-0.6l-8,2H820l-6.5,4.3  l-0.8,4.6l3.3,8v9.4l-1.6,3.2h-3.4l-1.9-3.9l-5.6-0.8l-5.9,5.9l-5.3-0.6l-4.7-1.3l-5.3,0.8l-0.8,1.3l-1.5-0.7  c-0.1-0.1-3.5-1.5-6.5-2.5c-0.3-0.1-0.5-0.2-0.7-0.2c-0.1,0-0.3-0.1-0.4-0.1c-0.1,0-0.1,0-0.2-0.1c-0.1,0-0.2,0-0.3-0.1  c0,0-0.1,0-0.1,0c-0.1,0-0.2,0-0.3,0c0,0-0.1,0-0.1,0c0,0,0,0,0,0c0,0,0,0-0.1,0c-0.2,0-0.4,0-0.6,0.1c0,0,0,0,0,0  c-0.2,0.1-0.3,0.1-0.5,0.2c-0.1,0.1-0.2,0.1-0.4,0.1c-0.7,0-4-1.9-6.6-3.6c-1.1-1.8-2.2-4-2.2-4.7c0-0.6,0.2-1.2,0.4-1.9  c0.3-0.8,0.5-1.6,0.5-2.5v-6l-8.7-5.1l-5.1-6.1l-1.4-5.6v-6.5l-0.1-0.2c-0.8-1.8-1.9-4.6-1.9-5.5c0-1.4-1.3-2.3-2.8-3.4  c-0.8-0.6-1.5-1.1-1.8-1.6c-0.8-1.2-1.8-1.7-2.6-1.8l-2-4l1.7-3.5l1.1-3.3l-1-4.8l3-5.6l7.3-0.5l3.5-1.1l0.2-0.3  c0.1-0.1,2.6-3.6,3.1-6.3c0.3-1.7,2.6-2.2,2.6-2.2l0.5-0.1l3.2-6.9l0.7-2.6l7.1-1.3l5.5-3.3l0.1-0.4c0.4-1.8,1.2-5.1,1.8-6  c0.9-1.3,4.4-5.3,4.8-5.7l3.8-3.3c0.6-0.3,1.9-0.8,2.9-0.8c1.5,0,4.5-0.5,4.6-0.5l0.3-0.1l3.4-3.4l5.4-0.4l3.9,0.9l4.6,5.5l0.3,0.3  l0,0l1.3,1.6l0-0.9c1.4,0.8,3.9,2.1,5,2.4c1.5,0.5,5.3,0.5,6.1,0.5l3.8,0.9l5.4,2c1.4,0.4,3.1,1.3,3.3,1.8c0.4,1.1,1.3,2.1,2.2,3  c0.5,0.6,1,1.1,1.4,1.6c0.8,1.3,3.4,3,4.6,3.8c0.2,0.7,1.2,1.5,4.6,3.4l5,2.7l1.4,6.4l1,7.2l5.6,5.6l6.4,4.9l6.9,7.8L872.7,527.8z"  />
            <text x="772.7" y="527.8">김해시</text>
        </g>
        <g class="map-item" name="L006">
            <path class="st0" d="M686.2,368.3l0.5-1.3h0.6l9.4-2l8.6-4l11.3-2.5l6.1,3.6c0.6,0.7,3.4,4,5.2,5.8c0.9,0.9,1.8,1.2,2.7,1.2  c0.9-0.1,1.5-0.6,1.8-0.9l3.3-0.6l7.5,2.5l6.1,2.7h9.4l7.8-1.4l4.8-6.8l2.9-2.9h3.9l2.7-2.7l5.8-1.7l5.1,4.4l5.8-11.6l5.8-9.6l4.8-3  h6.3l6-1.3h7.6l7.6,3.2l5.8,3.2l8.2,4.8l4.9-0.7l5-1.2l5.2,2.3l3,7.2l-1.8,6.7l-5.7,7.5l-5.7,3.2l-5.1,2.9v4.3l4.3,3.6l4.6,2.6  l2.5,3L860,392l-3.6,3.2c-0.2,0.1-0.7,0.4-1.3,0.8c-0.9,0.6-1.9,1.4-2.8,2.2c-1.1,1.1-5,3.4-6.6,4.2l-4.1,1.2v6.1l3.9,3.9l0,6.9  l-0.5,5.9l-4,2.6l-4.7,2.3l-5.5,0.5l-5.4,3.2l-2.8,6.6l3.1,5.7l0.4,3.6l-2.7,1.6c-0.6,0.1-2.9,0.4-4.1,0.4c-1.7,0-4.9,2.2-5.5,2.6  l-0.3,0.2l-0.1,0.4c-0.1,0.9-0.6,3.6-0.9,4.7c0,0.1-0.1,0.2-0.1,0.3c0,0,0,0.1,0,0.1c0,0.1-0.1,0.2-0.1,0.3c0,0.1,0,0.1-0.1,0.2  c0,0.1-0.1,0.2-0.1,0.3c0,0.1,0,0.1-0.1,0.2c-0.1,0.1-0.1,0.3-0.2,0.4c0,0.1,0,0.1-0.1,0.2c-0.1,0.2-0.2,0.4-0.2,0.6  c0,0,0,0.1-0.1,0.1c-0.1,0.2-0.1,0.3-0.2,0.5c0,0.1-0.1,0.1-0.1,0.2c-0.1,0.2-0.1,0.3-0.2,0.5c0,0.1,0,0.1-0.1,0.2  c-0.1,0.2-0.2,0.4-0.3,0.6c0,0,0,0,0,0c-0.5,1.2-1,2.4-1.3,3l-3.2-3.9l-4.9-1.1l-6.4,0.5l-3.5,3.5c-0.8,0.1-2.8,0.4-3.9,0.4  c-1.7,0-3.7,1-3.9,1.1l-4.1,3.6l-0.1,0.1c-0.2,0.2-4,4.5-5,6c-0.9,1.4-1.7,5-2,6.3L768,488l-8,1.4c-4-0.5-8.5-1.3-9.3-1.8  c-0.3-0.2-0.6-0.4-1-0.6c-1.7-0.8-4.3-1.7-5-2c-2-1.3-7-4.6-8.1-5.7c-1.5-1.5-6.4-4.5-6.6-4.6l-6.3-2.1l-7.3,0.5l-3.2,1.7  c-0.1-0.3-0.1-0.5-0.2-0.7c0-0.1,0-0.1,0-0.2c0-0.2-0.1-0.4-0.1-0.5c0-0.1,0-0.1,0-0.2c0-0.2-0.1-0.3-0.1-0.5  c-0.4-1.2-0.8-3.1-0.9-4.5c0-0.2,0-0.4,0-0.6c0-1.3,0-5.3,0.5-7.1c0.1-0.2,0.1-0.5,0.1-0.8c0.1-0.5,0.1-1.1,0.1-1.6  c0-1.3-0.2-2.5-0.2-2.9c0-0.5-0.1-3.4-1.6-6.7c-1.1-2.6-1.4-3.1-2-3.8c-0.2-0.2-0.3-0.4-0.6-0.8c-0.6-0.9-0.8-1.6-1-2.4  c-0.1-0.4-0.2-0.8-0.4-1.3c-0.5-1.6-3.2-4.3-3.7-4.8l-0.2-0.2l-4.4-0.5l-0.1,0c0,0-0.1,0-0.2,0c-0.9,0.1-4.4,0.5-5.6,0.5  c-1.3,0-3.2-0.5-5.5-1.4c-1.9-0.8-3.9-2.9-4.4-3.5c-0.3-0.9-1.4-4.6-1.9-7.5c-0.4-2.9-0.8-4.8-1-5.3c0.2-1.3,0.6-4.4,0.9-5.5  c0.1-0.4,0.4-1,0.6-1.6c0.7-1.6,1.4-3.4,1.4-4.6v-3.3l-0.2-0.3c0,0-2-2.4-2.9-3.9c-0.6-0.8-0.5-2.7-0.4-3.6l0.9-3.7l2.7-3.6l3.6-2  l1.2-3.1l-1.6-4.7l-1.4-5.1L686.2,368.3z"/>
            <text x="736.2" y="428.3">밀양시</text>
        </g>
        <g class="map-item" name="L008">
            <path class="st0" d="M956.6,459.2l-4.1,4.8l-0.7,5.4l-1.9,5.7l-4.3,6.1l-8.4,1.8l-4.1-2.4l-2.8-2.8h-3.7l-1.6,4.1v3.9l-3.3,6.6v3.6  l-2.4,1.2l-2.8,7.1v2.2c0,1.2-1.2,1.6-1.3,1.7l-3.3,2l-2.7,0.7l-5.7,5.7l-3.4-0.6l-5.1,0l-3.1,2.3l-2,4.1l-2.4,4.2l-4.6,0.6l-4-0.7  l-2.5,0.6l-7.7-8.6l-6.5-5l-5.1-5.1l-0.9-6.6l-1.6-7.3l-5.8-3.2c-0.8-0.4-1.4-0.8-1.9-1.1h1l-3-1.8c-1.5-0.9-4-2.7-4.6-3.6  c-0.4-0.7-1-1.3-1.6-1.9c-0.7-0.8-1.5-1.6-1.7-2.3c-0.6-1.9-3.9-2.9-4.5-3.1l-5.4-2l-4-1l-0.2,0c-1.6,0-4.6-0.1-5.6-0.4  c-0.8-0.3-2.9-1.4-4.4-2.2c-0.4-0.2-0.8-0.4-1.1-0.6l-0.1-0.1l0-0.9c0.5-1.2,2.9-6.9,3.4-8.2c0.4-1.2,0.8-3.7,1-4.7c1.5-1,3.3-2,4-2  c1.5,0,4.5-0.5,4.6-0.5l0.2,0l4.2-2.4l-0.6-5.3l-2.8-5.2l2.1-5.2l4.4-2.7l5.4-0.5l5.1-2.5l4.9-3.3l0.5-7v-7.8l-3.9-3.9v-3.8l2.7-0.8  l0.2-0.1c0.6-0.3,5.6-3.1,7.1-4.6c1.4-1.4,3.7-2.8,3.7-2.8l4.3-3.7l0.9-3.1l4.7,1.2l9,0l6.7-2.7l4.1-1l0.5,4.4l-1.7,2.3l-1.8,3.6  l6.8,3.8l5.9,2.6l8.5,3.9l6.3,3.8l3.8,6.9l4.7,9.4l5.4,4.7l8.3,4.2l11.4-0.7h5.2l1.1,3.2l1.4,6.8l5.4,5.4l1.6,2.6L956.6,459.2z"/>
            <text x="861.6" y="465.2">양산시</text>
        </g>
        <g class="items">
            <g class="item" name="L013">
                <rect x="460.5" y="782" width="225" height="250"/>
                <image x="460.5" y="782" width="225" height="150" href="./image/남해군_마늘.jpg"></image>
                <text class="svg-title" x="465.5" y="957">남해군</text>
                <text x="465.5" y="992">마늘</text>
            </g>
            <g class="item" name="L014">
                <rect x="409.8" y="563.6" width="225" height="250"/>
                <image x="409.8" y="563.6" width="225" height="150" href="./image/하동군_녹차.jpg"></image>
                <text class="svg-title" x="414.8" y="738.6">하동군</text>
                <text x="414.8" y="773.6">녹차</text>
            </g>
            <g class="item" name="L004">
                <rect x="494.9" y="688.2" width="225" height="250"/>
                <image x="494.9" y="688.2" width="225" height="150" href="./image/사천시_멸치.jpg"></image>
                <text class="svg-title" x="499.9" y="863.2">사천시</text>
                <text x="499.9" y="898.2">멸치, 단감, 쥐치포, 옹기</text>
            </g>
            <g class="item check" name="L015">
                <rect x="391.3" y="547" width="225" height="250"/>
                <image x="391.3" y="547" width="225" height="150" href="./image/산청군_약초.jpg"></image>
                <text class="svg-title" x="396.3" y="722">산청군</text>
                <text x="396.3" y="757">약초</text>
            </g>
            <g class="item" name="L016">
                <rect x="326.5" y="449" width="225" height="250"/>
                <image x="326.5" y="449" width="225" height="150" href="./image/함양군_밤.jpg"></image>
                <text class="svg-title" x="331.5" y="624">함양군</text>
                <text x="331.5" y="659">밤</text>
            </g>
            <g class="item" name="L017">
                <rect x="426.5" y="340" width="225" height="250"/>
                <image x="426.5" y="340" width="225" height="150" href="./image/거창군_사과.jpg"></image>
                <text class="svg-title" x="431.5" y="515">거창군</text>
                <text x="431.5" y="550">사과</text>
            </g>
            <g class="item" name="L012">
                <rect x="569.5" y="713.1" width="225" height="250"/>
                <image x="569.5" y="713.1" width="225" height="150" href="./image/고성군_방울토마토.jpg"></image>
                <text class="svg-title" x="574.5" y="888.1">고성군</text>
                <text x="574.5" y="923.1">방울토마토</text>
            </g>
            <g class="item" name="L003">
                <rect x="631.5" y="765" width="225" height="250"/>
                <image x="631.5" y="765" width="225" height="150" href="./image/통영시_굴.jpg"></image>
                <text class="svg-title" x="636.5" y="940">통영시</text>
                <text x="636.5" y="975">굴, 진주, 나전칠기</text>
            </g>
            <g class="item" name="L002">
                <rect x="524.1" y="616.7" width="225" height="250"/>
                <image x="524.1" y="616.7" width="225" height="150" href="./image/진주시_고추.jpg"></image>
                <text class="svg-title" x="529.1" y="791.7">진주시</text>
                <text x="529.1" y="826.7">고추, 마, 실크, 배</text>
            </g>
            <g class="item" name="L009">
                <rect x="572" y="503.3" width="225" height="250"/>
                <image x="572" y="503.3" width="225" height="150" href="./image/의령군_수박.jpg"></image>
                <text class="svg-title" x="577" y="678.3">의령군</text>
                <text x="577" y="713.3">수박</text>
            </g>
            <g class="item" name="L018">
                <rect x="522.5" y="420" width="225" height="250"/>
                <image x="522.5" y="420" width="225" height="150" href="./image/합천군_돼지고기.jpg"></image>
                <text class="svg-title" x="527.5" y="595">합천군</text>
                <text x="527.5" y="630">돼지고기</text>
            </g>
            <g class="item" name="L007">
                <rect x="739.5" y="776" width="225" height="250"/>
                <image x="739.5" y="776" width="225" height="150" href="./image/거제시_유자.jpg"></image>
                <text class="svg-title" x="744.5" y="951">거제시</text>
                <text x="744.5" y="986">유자</text>
            </g>
            <g class="item" name="L010">
                <rect x="643.9" y="540.1" width="225" height="250"/>
                <image x="643.9" y="540.1" width="225" height="150" href="./image/함안군_곶감.jpg"></image>
                <text class="svg-title" x="648.9" y="715.1">함안군</text>
                <text x="648.9" y="750.1">곶감</text>
            </g>
            <g class="item" name="L011">
                <rect x="651.2" y="477.9" width="225" height="250"/>
                <image x="651.2" y="477.9" width="225" height="150" href="./image/창녕군_양파.jpg"></image>
                <text class="svg-title" x="656.2" y="652.9">창녕군</text>
                <text x="656.2" y="687.9">양파</text>
            </g>
            <g class="item" name="L006">
                <rect x="800.5" y="473" width="225" height="250"/>
                <image x="800.5" y="473" width="225" height="150" href="./image/밀양시_대추.jpg"></image>
                <text class="svg-title" x="805.5" y="648">밀양시</text>
                <text x="805.5" y="683">대추, 깻잎, 사과, 풋고추</text>
                <text x="805.5" y="713">도자기</text>
            </g>
            <g class="item" name="L001">
                <rect x="709.5" y="631" width="225" height="250"/>
                <image x="709.5" y="631" width="225" height="150" href="./image/창원시_풋고추.jpg"></image>
                <text class="svg-title" x="714.5" y="806">창원시</text>
                <text x="714.5" y="841">풋고추, 단감, 수박, 홍합</text>
            </g>
            <g class="item" name="L005">
                <rect x="827.5" y="561" width="225" height="250"/>
                <image x="827.5" y="561" width="225" height="150" href="./image/김해시_단감.jpg"></image>
                <text class="svg-title" x="832.5" y="736">김해시</text>
                <text x="832.5" y="771">단감, 화훼, 참외, 도자기</text>
            </g>
            <g class="item" name="L008">
                <rect x="953.5" y="459" width="225" height="250"/>
                <image x="953.5" y="459" width="225" height="150" href="./image/양산시_매실.jpg"></image>
                <text class="svg-title" x="958.5" y="635">양산시</text>
                <text x="958.5" y="670">매실</text>
            </g>
        </g>
    </g>
</svg>