<?xml version="1.0" encoding="utf-8"?>
<!-- Generator: Adobe Illustrator 26.3.1, SVG Export Plug-In . SVG Version: 6.00 Build 0)  -->
<svg version="1.1" id="Layer_1" xmlns="http://www.w3.org/2000/svg" xmlns:xlink="http://www.w3.org/1999/xlink" x="0px" y="0px"
	 viewBox="0 0 363.1 364.7" style="enable-background:new 0 0 363.1 364.7;" xml:space="preserve">
<style type="text/css">
	.st0{fill:url(#SVGID_1_);stroke:#1D1D1B;stroke-width:10;stroke-linecap:round;stroke-linejoin:round;stroke-miterlimit:10;}
	.st1{fill:#FFED00;stroke:#1D1D1B;stroke-width:10;stroke-linecap:round;stroke-linejoin:round;stroke-miterlimit:10;}
	.st2{fill:none;stroke:#1D1D1B;stroke-width:10;stroke-linecap:round;stroke-linejoin:round;stroke-miterlimit:10;}
</style>
<linearGradient id="SVGID_1_" gradientUnits="userSpaceOnUse" x1="541.77" y1="182.3517" x2="542.27" y2="182.3517">
	<stop  offset="0" style="stop-color:#FFED00"/>
	<stop  offset="1" style="stop-color:#000000;stop-opacity:0"/>
</linearGradient>
<polygon class="st0" points="541.6,23.2 580.6,145.4 709,144.8 604.7,219.7 645,341.5 541.6,265.6 438.1,341.5 478.4,219.7 
	374.2,144.8 502.5,145.4 "/>
<polygon class="st1" points="181.6,23.2 220.6,145.4 349,144.8 244.7,219.7 285,341.5 181.6,265.6 78.1,341.5 118.4,219.7 
	14.2,144.8 142.5,145.4 "/>
<polygon class="st2" points="-178.4,23.2 -139.4,145.4 -11,144.8 -115.3,219.7 -75,341.5 -178.4,265.6 -281.9,341.5 -241.6,219.7 
	-345.8,144.8 -217.5,145.4 "/>
</svg>
